<svg xmlns="http://www.w3.org/2000/svg" width="381.092" height="384.236" viewBox="0 0 381.092 384.236"><defs><style>.a{fill:#ffaf00;}</style></defs><g transform="matrix(0.998, 0.07, -0.07, 0.998, 23.541, 0.001)"><path class="a" d="M63.317,278.4a29.355,29.355,0,0,0-14.183,3.62A166.241,166.241,0,0,1,14.062,180C14.062,88.5,88.5,14.062,180,14.062a167.192,167.192,0,0,1,33.047,3.29,7.032,7.032,0,0,0,2.785-13.785A181.339,181.339,0,0,0,180,0,180,180,0,0,0,38.735,291.552,29.543,29.543,0,1,0,63.317,278.4ZM74.254,318.87a15.466,15.466,0,1,1,4.532-10.937A15.361,15.361,0,0,1,74.254,318.87Zm0,0"/><path class="a" d="M379.887,77.954a29.47,29.47,0,1,0-10.393,9.539,166.247,166.247,0,0,1,35.071,102.022c0,91.5-74.438,165.938-165.938,165.938a167.15,167.15,0,0,1-32.731-3.227,7.032,7.032,0,0,0-2.76,13.791,181.463,181.463,0,0,0,35.491,3.5A180,180,0,0,0,379.888,77.954Zm-35.513-5.433a15.473,15.473,0,1,1,10.937,4.529,15.368,15.368,0,0,1-10.937-4.529Zm0,0" transform="translate(-58.628 -9.515)"/><path class="a" d="M172.949,322.906a7.032,7.032,0,0,0,7.031,7.031h43.965a7.031,7.031,0,0,0,7.031-7.031V309.275a110.108,110.108,0,0,0,26.389-10.937l9.624,9.624a7.029,7.029,0,0,0,9.945,0l31.075-31.1a7.034,7.034,0,0,0,0-9.943l-9.613-9.613a110.108,110.108,0,0,0,10.937-26.389h13.579a7.031,7.031,0,0,0,7.031-7.031V179.922a7.031,7.031,0,0,0-7.031-7.031H309.331A110.124,110.124,0,0,0,298.4,146.5l9.561-9.561a7.032,7.032,0,0,0,0-9.948l-31.1-31.075a7.031,7.031,0,0,0-9.943,0l-9.547,9.55a110.108,110.108,0,0,0-26.389-10.937v-13.5A7.031,7.031,0,0,0,223.945,74H179.98a7.032,7.032,0,0,0-7.031,7.031V94.539a110.013,110.013,0,0,0-26.386,10.934l-9.55-9.55a7.034,7.034,0,0,0-9.943,0L95.973,127a7.029,7.029,0,0,0,0,9.945l9.561,9.561a110.089,110.089,0,0,0-10.937,26.386H81.04a7.03,7.03,0,0,0-7.031,7.029l-.025,43.965a7.028,7.028,0,0,0,7.031,7.034H94.595a110.107,110.107,0,0,0,10.937,26.389l-9.613,9.613a7.031,7.031,0,0,0,0,9.943l31.075,31.1a7.034,7.034,0,0,0,4.971,2.063h0a7.031,7.031,0,0,0,4.971-2.06l9.621-9.624a110.2,110.2,0,0,0,26.389,10.937Zm-23.632-39.356a7.033,7.033,0,0,0-8.789.934l-8.561,8.561-21.135-21.151,8.553-8.556a7.029,7.029,0,0,0,.934-8.786A96.241,96.241,0,0,1,107,222.409a7.033,7.033,0,0,0-6.875-5.554H88.049l.016-29.9h12.06A7.031,7.031,0,0,0,107,181.4a96.249,96.249,0,0,1,13.318-32.14,7.029,7.029,0,0,0-.934-8.786l-8.5-8.5,21.151-21.135,8.49,8.492a7.036,7.036,0,0,0,8.789.934,96.2,96.2,0,0,1,32.14-13.318,7.036,7.036,0,0,0,5.554-6.875V88.063h29.9v12.005a7.028,7.028,0,0,0,5.554,6.875,96.283,96.283,0,0,1,32.141,13.318,7.025,7.025,0,0,0,8.786-.934l8.492-8.49,21.151,21.135-8.5,8.5a7.03,7.03,0,0,0-.934,8.789,96.307,96.307,0,0,1,13.318,32.14,7.028,7.028,0,0,0,6.875,5.554h12.082v29.9H303.8a7.033,7.033,0,0,0-6.875,5.554,96.225,96.225,0,0,1-13.318,32.141,7.033,7.033,0,0,0,.934,8.789l8.553,8.553-21.135,21.151-8.561-8.558a7.03,7.03,0,0,0-8.789-.934,96.308,96.308,0,0,1-32.141,13.318,7.03,7.03,0,0,0-5.554,6.875v12.132h-29.9V303.743a7.036,7.036,0,0,0-5.554-6.875,96.249,96.249,0,0,1-32.14-13.318Zm0,0" transform="translate(-21.964 -21.969)"/><path class="a" d="M289.568,231.47a58.1,58.1,0,1,0-58.1,58.1A58.164,58.164,0,0,0,289.568,231.47Zm-102.135,0a44.036,44.036,0,1,1,44.036,44.036A44.085,44.085,0,0,1,187.434,231.47Zm0,0" transform="translate(-51.47 -51.47)"/><path class="a" d="M345.109,31.879a7.038,7.038,0,1,0-4.969-2.06A7.082,7.082,0,0,0,345.109,31.879Zm0,0" transform="translate(-100.367 -5.287)"/><path class="a" d="M161.39,474.359a7.033,7.033,0,1,0,4.971,2.06A7.087,7.087,0,0,0,161.39,474.359Zm0,0" transform="translate(-45.825 -140.825)"/></g></svg>