<?xml version="1.0" encoding="iso-8859-1"?>
<!-- Generator: Adobe Illustrator 19.0.0, SVG Export Plug-In . SVG Version: 6.00 Build 0)  -->
<svg version="1.1" id="Capa_1" xmlns="http://www.w3.org/2000/svg" xmlns:xlink="http://www.w3.org/1999/xlink" x="0px" y="0px"
	 viewBox="0 0 409.601 409.601" style="enable-background:new 0 0 409.601 409.601;" xml:space="preserve">
<circle style="fill:#EFC84A;" cx="204.8" cy="204.8" r="204.8"/>
<path style="opacity:0.1;enable-background:new    ;" d="M405.945,243.24L253.644,90.939l-0.005,0.005
	c-2.093-2.138-5.007-3.471-8.24-3.471c-6.315,0-11.477,5.12-11.477,11.477c0,2.347,0.725,4.48,1.877,6.315l-5.345,8.603
	l-11.433,26.851l-48.932-48.932c-2.101-2.613-5.286-4.314-8.914-4.314c-6.357,0-11.477,5.12-11.477,11.477
	c0,2.95,1.135,5.605,2.952,7.634l-0.007,0.006l0.065,0.065c0.244,0.268,0.496,0.52,0.764,0.764l16.82,16.821l13.668,23.223
	c-4.907,2.56-8.533,6.144-10.198,10.24H90.519v151.595l99.732,99.732c4.812,0.338,9.653,0.571,14.55,0.571
	C304.763,409.6,387.949,337.965,405.945,243.24z"/>
<rect x="151.96" y="306.43" style="fill:#D15241;" width="105.67" height="15.697"/>
<g>
	
		<rect x="172.384" y="98.809" transform="matrix(0.8617 -0.5074 0.5074 0.8617 -39.8437 107.151)" style="fill:#2F4859;" width="8.533" height="55.722"/>
	
		<rect x="200.708" y="120.733" transform="matrix(0.5283 -0.8491 0.8491 0.5283 1.6874 253.0367)" style="fill:#2F4859;" width="55.725" height="8.533"/>
</g>
<circle style="fill:#E56353;" cx="161.18" cy="98.94" r="11.486"/>
<path style="fill:#DC8744;" d="M172.668,162.828c0-10.964,13.714-19.853,30.63-19.853s30.63,8.888,30.63,19.853"/>
<circle style="fill:#E56353;" cx="245.42" cy="98.94" r="11.486"/>
<rect x="90.5" y="157.69" style="fill:#2F4859;" width="228.56" height="151.62"/>
<rect x="105.14" y="168.41" style="fill:#1C75A1;" width="177.11" height="130.18"/>
<polygon style="fill:#2D93BA;" points="282.251,168.408 218.775,168.408 105.142,298.586 134.542,298.586 "/>
<g>
	<circle style="fill:#D15241;" cx="300.88" cy="281.17" r="12.843"/>
	<circle style="fill:#D15241;" cx="300.88" cy="251.3" r="12.843"/>
</g>
<g>
	<rect x="288.08" y="184.11" style="fill:#D5D6DB;" width="23.74" height="6.511"/>
	<rect x="288.08" y="197.89" style="fill:#D5D6DB;" width="23.74" height="6.511"/>
	<rect x="288.08" y="211.67" style="fill:#D5D6DB;" width="23.74" height="6.511"/>
</g>
<g>
</g>
<g>
</g>
<g>
</g>
<g>
</g>
<g>
</g>
<g>
</g>
<g>
</g>
<g>
</g>
<g>
</g>
<g>
</g>
<g>
</g>
<g>
</g>
<g>
</g>
<g>
</g>
<g>
</g>
</svg>
